<?xml version="1.0" encoding="utf-8"?>
<!-- Generator: Adobe Illustrator 23.0.4, SVG Export Plug-In . SVG Version: 6.00 Build 0)  -->
<svg version="1.1" id="Layer_1" xmlns="http://www.w3.org/2000/svg" xmlns:xlink="http://www.w3.org/1999/xlink" x="0px" y="0px"
	 viewBox="0 0 500 500" style="enable-background:new 0 0 500 500;" xml:space="preserve">
<style type="text/css">
	.st0{fill:#FF4200;}
	.st1{fill:#FFFFFF;}
</style>
<g>
	<path class="st0" d="M380.25,0H118.38C52.79,0-0.37,53.16-0.37,118.75v261.87c0,65.59,53.16,118.76,118.75,118.76h261.87
		c65.58,0,118.75-53.18,118.75-118.76V118.75C498.99,53.16,445.83,0,380.25,0"/>
	<path class="st1" d="M217.51,205.09c0,23.51,11.41,32.85,47.7,32.85c3.8,0,20.74-0.36,24.54-0.7v-66.37
		c-4.14-0.34-22.12-1.04-26.96-1.04c-29.03,0-45.27,9.68-45.27,30.76V205.09z M150.1,375.52c0-1.04,0.34-2.41,1.03-3.8l52.22-97.49
		c-25.25-10.03-44.6-32.49-44.6-69.14v-4.5c0-61.18,45.29-80.89,104.04-80.89c24.89,0,54.29,2.09,70.18,4.5
		c10.71,1.73,15.55,4.84,15.55,16.6v231.95c0,3.81-3.11,6.91-6.91,6.91h-44.93c-3.81,0-6.93-3.1-6.93-6.91v-87.81
		c-6.57,0-17.28,0.7-24.54,0.7l-3.8-0.34l-46.33,87.45c-1.73,3.46-3.11,6.91-6.91,6.91h-52.89
		C151.49,379.66,150.1,377.93,150.1,375.52"/>
</g>
</svg>
